<svg width="724" height="200" viewBox="0 0 724 200" fill="none" xmlns="http://www.w3.org/2000/svg">
<circle cx="100" cy="100" r="100" fill="#036BCC"/>
<circle cx="182.5" cy="100.5" r="82.5" fill="#18FF90"/>
<path fill-rule="evenodd" clip-rule="evenodd" d="M160.109 179.925C184.336 161.676 200 132.667 200 100C200 67.7679 184.751 39.0975 161.073 20.8099C125.898 30.2442 100 62.3477 100 100.5C100 138.303 125.426 170.167 160.109 179.925Z" fill="white"/>
<path d="M340.248 133.96C336.408 133.96 333.112 133.512 330.36 132.616C327.672 131.72 325.464 130.6 323.736 129.256C322.008 127.912 320.728 126.568 319.896 125.224C319.064 123.88 318.616 122.76 318.552 121.864C318.488 121.16 318.68 120.616 319.128 120.232C319.64 119.784 320.184 119.56 320.76 119.56H328.344C328.6 119.56 328.824 119.592 329.016 119.656C329.208 119.72 329.464 119.912 329.784 120.232C330.616 120.936 331.48 121.672 332.376 122.44C333.336 123.208 334.456 123.88 335.736 124.456C337.016 124.968 338.616 125.224 340.536 125.224C343.032 125.224 345.112 124.744 346.776 123.784C348.504 122.76 349.368 121.32 349.368 119.464C349.368 118.12 348.984 117.032 348.216 116.2C347.512 115.368 346.168 114.632 344.184 113.992C342.2 113.288 339.384 112.552 335.736 111.784C332.152 110.952 329.176 109.896 326.808 108.616C324.44 107.336 322.68 105.736 321.528 103.816C320.376 101.896 319.8 99.656 319.8 97.096C319.8 94.6 320.536 92.232 322.008 89.992C323.544 87.688 325.784 85.8 328.728 84.328C331.736 82.856 335.448 82.12 339.864 82.12C343.32 82.12 346.328 82.568 348.888 83.464C351.448 84.296 353.56 85.352 355.224 86.632C356.952 87.912 358.264 89.224 359.16 90.568C360.056 91.848 360.536 92.968 360.6 93.928C360.664 94.632 360.472 95.208 360.024 95.656C359.576 96.04 359.064 96.232 358.488 96.232H351.384C351.064 96.232 350.776 96.168 350.52 96.04C350.264 95.912 350.008 95.752 349.752 95.56C349.048 94.92 348.28 94.248 347.448 93.544C346.616 92.84 345.592 92.232 344.376 91.72C343.224 91.144 341.688 90.856 339.768 90.856C337.336 90.856 335.48 91.4 334.2 92.488C332.92 93.512 332.28 94.824 332.28 96.424C332.28 97.512 332.568 98.472 333.144 99.304C333.784 100.072 335.032 100.808 336.888 101.512C338.744 102.216 341.56 102.952 345.336 103.72C349.624 104.488 353.016 105.64 355.512 107.176C358.072 108.648 359.864 110.376 360.888 112.36C361.976 114.28 362.52 116.424 362.52 118.792C362.52 121.672 361.656 124.264 359.928 126.568C358.264 128.872 355.768 130.696 352.44 132.04C349.176 133.32 345.112 133.96 340.248 133.96ZM393.934 133.96C386.83 133.96 381.198 131.912 377.038 127.816C372.878 123.72 370.638 117.896 370.318 110.344C370.254 109.704 370.222 108.904 370.222 107.944C370.222 106.92 370.254 106.12 370.318 105.544C370.574 100.744 371.662 96.584 373.582 93.064C375.566 89.544 378.286 86.856 381.742 85C385.198 83.08 389.262 82.12 393.934 82.12C399.118 82.12 403.47 83.208 406.99 85.384C410.51 87.496 413.166 90.472 414.958 94.312C416.75 98.088 417.646 102.472 417.646 107.464V109.48C417.646 110.12 417.422 110.664 416.974 111.112C416.526 111.56 415.95 111.784 415.246 111.784H383.374C383.374 111.784 383.374 111.88 383.374 112.072C383.374 112.264 383.374 112.424 383.374 112.552C383.438 114.792 383.854 116.872 384.622 118.792C385.454 120.648 386.638 122.152 388.174 123.304C389.774 124.456 391.662 125.032 393.838 125.032C395.63 125.032 397.134 124.776 398.35 124.264C399.566 123.688 400.558 123.048 401.326 122.344C402.094 121.64 402.638 121.064 402.958 120.616C403.534 119.848 403.982 119.4 404.302 119.272C404.686 119.08 405.23 118.984 405.934 118.984H414.19C414.83 118.984 415.342 119.176 415.726 119.56C416.174 119.944 416.366 120.424 416.302 121C416.238 122.024 415.694 123.272 414.67 124.744C413.71 126.216 412.302 127.656 410.446 129.064C408.59 130.472 406.254 131.656 403.438 132.616C400.686 133.512 397.518 133.96 393.934 133.96ZM383.374 103.72H404.59V103.432C404.59 100.936 404.174 98.76 403.342 96.904C402.51 95.048 401.294 93.576 399.694 92.488C398.094 91.4 396.174 90.856 393.934 90.856C391.694 90.856 389.774 91.4 388.174 92.488C386.574 93.576 385.358 95.048 384.526 96.904C383.758 98.76 383.374 100.936 383.374 103.432V103.72ZM450.396 154.12C445.724 154.12 441.884 153.512 438.876 152.296C435.868 151.08 433.5 149.608 431.772 147.88C430.044 146.152 428.796 144.424 428.028 142.696C427.324 141.032 426.94 139.72 426.876 138.76C426.812 138.12 427.004 137.544 427.452 137.032C427.964 136.584 428.54 136.36 429.18 136.36H437.532C438.172 136.36 438.684 136.488 439.068 136.744C439.452 137.064 439.772 137.608 440.028 138.376C440.412 139.208 440.924 140.104 441.564 141.064C442.204 142.024 443.164 142.824 444.444 143.464C445.788 144.168 447.612 144.52 449.916 144.52C452.348 144.52 454.396 144.168 456.06 143.464C457.724 142.76 458.972 141.576 459.804 139.912C460.7 138.248 461.148 135.944 461.148 133V126.472C459.612 128.328 457.628 129.832 455.196 130.984C452.828 132.136 449.884 132.712 446.364 132.712C442.908 132.712 439.932 132.168 437.436 131.08C434.94 129.928 432.86 128.36 431.196 126.376C429.532 124.328 428.252 121.928 427.356 119.176C426.524 116.424 426.044 113.384 425.916 110.056C425.852 108.328 425.852 106.6 425.916 104.872C426.044 101.672 426.524 98.696 427.356 95.944C428.188 93.192 429.436 90.792 431.1 88.744C432.828 86.632 434.94 85 437.436 83.848C439.932 82.696 442.908 82.12 446.364 82.12C450.012 82.12 453.084 82.824 455.58 84.232C458.076 85.576 460.124 87.272 461.724 89.32V85.48C461.724 84.776 461.948 84.2 462.396 83.752C462.844 83.304 463.388 83.08 464.028 83.08H471.804C472.444 83.08 472.988 83.304 473.436 83.752C473.884 84.2 474.108 84.776 474.108 85.48L474.204 131.752C474.204 136.36 473.34 140.328 471.612 143.656C469.884 146.984 467.26 149.544 463.74 151.336C460.284 153.192 455.836 154.12 450.396 154.12ZM449.916 122.536C452.54 122.536 454.652 121.96 456.252 120.808C457.852 119.656 459.036 118.152 459.804 116.296C460.572 114.44 461.02 112.552 461.148 110.632C461.212 109.8 461.244 108.744 461.244 107.464C461.244 106.184 461.212 105.16 461.148 104.392C461.02 102.408 460.572 100.52 459.804 98.728C459.036 96.872 457.852 95.368 456.252 94.216C454.652 93 452.54 92.392 449.916 92.392C447.292 92.392 445.18 93 443.58 94.216C441.98 95.368 440.828 96.904 440.124 98.824C439.484 100.744 439.1 102.856 438.972 105.16C438.844 106.696 438.844 108.264 438.972 109.864C439.1 112.104 439.484 114.216 440.124 116.2C440.828 118.12 441.98 119.656 443.58 120.808C445.18 121.96 447.292 122.536 449.916 122.536ZM489.296 133C488.656 133 488.112 132.776 487.664 132.328C487.216 131.88 486.992 131.336 486.992 130.696V85.384C486.992 84.744 487.216 84.2 487.664 83.752C488.112 83.304 488.656 83.08 489.296 83.08H496.784C497.424 83.08 497.968 83.304 498.416 83.752C498.864 84.2 499.088 84.744 499.088 85.384V88.648C500.432 86.856 502.224 85.352 504.464 84.136C506.768 82.856 509.488 82.184 512.624 82.12C519.92 81.992 525.008 84.84 527.888 90.664C529.36 88.104 531.472 86.056 534.224 84.52C537.04 82.92 540.144 82.12 543.536 82.12C546.864 82.12 549.872 82.888 552.56 84.424C555.312 85.96 557.456 88.296 558.992 91.432C560.592 94.504 561.392 98.408 561.392 103.144V130.696C561.392 131.336 561.168 131.88 560.72 132.328C560.272 132.776 559.728 133 559.088 133H551.216C550.576 133 550.032 132.776 549.584 132.328C549.136 131.88 548.912 131.336 548.912 130.696V103.912C548.912 101.032 548.496 98.76 547.664 97.096C546.832 95.368 545.712 94.152 544.304 93.448C542.896 92.744 541.328 92.392 539.6 92.392C538.192 92.392 536.784 92.744 535.376 93.448C533.968 94.152 532.816 95.368 531.92 97.096C531.024 98.76 530.576 101.032 530.576 103.912V130.696C530.576 131.336 530.352 131.88 529.904 132.328C529.456 132.776 528.912 133 528.272 133H520.4C519.696 133 519.12 132.776 518.672 132.328C518.288 131.88 518.096 131.336 518.096 130.696V103.912C518.096 101.032 517.648 98.76 516.752 97.096C515.856 95.368 514.704 94.152 513.296 93.448C511.888 92.744 510.384 92.392 508.784 92.392C507.312 92.392 505.872 92.776 504.464 93.544C503.056 94.248 501.904 95.432 501.008 97.096C500.112 98.76 499.664 101.032 499.664 103.912V130.696C499.664 131.336 499.44 131.88 498.992 132.328C498.544 132.776 498 133 497.36 133H489.296ZM595.121 133.96C588.017 133.96 582.385 131.912 578.225 127.816C574.065 123.72 571.825 117.896 571.505 110.344C571.441 109.704 571.409 108.904 571.409 107.944C571.409 106.92 571.441 106.12 571.505 105.544C571.761 100.744 572.849 96.584 574.769 93.064C576.753 89.544 579.473 86.856 582.929 85C586.385 83.08 590.449 82.12 595.121 82.12C600.305 82.12 604.657 83.208 608.177 85.384C611.697 87.496 614.353 90.472 616.145 94.312C617.937 98.088 618.833 102.472 618.833 107.464V109.48C618.833 110.12 618.609 110.664 618.161 111.112C617.713 111.56 617.137 111.784 616.433 111.784H584.561C584.561 111.784 584.561 111.88 584.561 112.072C584.561 112.264 584.561 112.424 584.561 112.552C584.625 114.792 585.041 116.872 585.809 118.792C586.641 120.648 587.825 122.152 589.361 123.304C590.961 124.456 592.849 125.032 595.025 125.032C596.817 125.032 598.321 124.776 599.537 124.264C600.753 123.688 601.745 123.048 602.513 122.344C603.281 121.64 603.825 121.064 604.145 120.616C604.721 119.848 605.169 119.4 605.489 119.272C605.873 119.08 606.417 118.984 607.121 118.984H615.377C616.017 118.984 616.529 119.176 616.913 119.56C617.361 119.944 617.553 120.424 617.489 121C617.425 122.024 616.881 123.272 615.857 124.744C614.897 126.216 613.489 127.656 611.633 129.064C609.777 130.472 607.441 131.656 604.625 132.616C601.873 133.512 598.705 133.96 595.121 133.96ZM584.561 103.72H605.777V103.432C605.777 100.936 605.361 98.76 604.529 96.904C603.697 95.048 602.481 93.576 600.881 92.488C599.281 91.4 597.361 90.856 595.121 90.856C592.881 90.856 590.961 91.4 589.361 92.488C587.761 93.576 586.545 95.048 585.713 96.904C584.945 98.76 584.561 100.936 584.561 103.432V103.72ZM631.328 133C630.688 133 630.144 132.776 629.696 132.328C629.248 131.88 629.023 131.336 629.023 130.696V85.384C629.023 84.744 629.248 84.2 629.696 83.752C630.144 83.304 630.688 83.08 631.328 83.08H639.2C639.84 83.08 640.384 83.304 640.832 83.752C641.28 84.2 641.504 84.744 641.504 85.384V89.32C643.168 87.272 645.28 85.576 647.84 84.232C650.464 82.824 653.696 82.12 657.536 82.12C661.44 82.12 664.832 83.016 667.712 84.808C670.592 86.536 672.8 89 674.336 92.2C675.936 95.4 676.736 99.24 676.736 103.72V130.696C676.736 131.336 676.512 131.88 676.064 132.328C675.616 132.776 675.072 133 674.432 133H665.984C665.344 133 664.8 132.776 664.352 132.328C663.904 131.88 663.68 131.336 663.68 130.696V104.296C663.68 100.584 662.752 97.672 660.896 95.56C659.104 93.448 656.48 92.392 653.024 92.392C649.696 92.392 647.04 93.448 645.056 95.56C643.072 97.672 642.08 100.584 642.08 104.296V130.696C642.08 131.336 641.856 131.88 641.408 132.328C640.96 132.776 640.416 133 639.776 133H631.328ZM710.927 133C707.087 133 703.855 132.328 701.231 130.984C698.607 129.64 696.655 127.656 695.375 125.032C694.095 122.344 693.455 119.016 693.455 115.048V93.256H685.871C685.231 93.256 684.687 93.032 684.239 92.584C683.791 92.136 683.567 91.592 683.567 90.952V85.384C683.567 84.744 683.791 84.2 684.239 83.752C684.687 83.304 685.231 83.08 685.871 83.08H693.455V67.144C693.455 66.504 693.647 65.96 694.031 65.512C694.479 65.064 695.055 64.84 695.759 64.84H703.535C704.175 64.84 704.719 65.064 705.167 65.512C705.615 65.96 705.839 66.504 705.839 67.144V83.08H717.839C718.479 83.08 719.023 83.304 719.471 83.752C719.919 84.2 720.143 84.744 720.143 85.384V90.952C720.143 91.592 719.919 92.136 719.471 92.584C719.023 93.032 718.479 93.256 717.839 93.256H705.839V114.088C705.839 116.712 706.287 118.76 707.183 120.232C708.143 121.704 709.775 122.44 712.079 122.44H718.703C719.343 122.44 719.887 122.664 720.335 123.112C720.783 123.56 721.007 124.104 721.007 124.744V130.696C721.007 131.336 720.783 131.88 720.335 132.328C719.887 132.776 719.343 133 718.703 133H710.927Z" fill="black"/>
</svg>
